<svg xmlns:dc="http://purl.org/dc/elements/1.1/" xmlns:cc="http://creativecommons.org/ns#" xmlns:rdf="http://www.w3.org/1999/02/22-rdf-syntax-ns#" xmlns:svg="http://www.w3.org/2000/svg" xmlns="http://www.w3.org/2000/svg" id="svg5974" viewBox="0 0 210 297" height="297mm" width="210mm" style=""><title id="title7012">Anagirl</title><defs id="defs5968"></defs><metadata></metadata><g id="layer1"><path style="fill:#f2d16a;stroke:#000328;stroke-width:1.43791616px;stroke-linecap:round;stroke-linejoin:round" id="path6" d="m 96.161274,112.21192 c 2.62452,6.19137 12.092886,8.60453 27.029166,16.33025 21.15224,13.41644 17.56976,24.74569 15.58926,34.37491 0.15428,2.0602 -5.54863,18.75782 -5.54863,18.75782 -10.76359,35.28435 -37.057236,34.31909 -37.057236,34.31909 z" class="cls-1 OBgpDgUb_0"></path><path style="fill:#f2d16a;stroke:#000328;stroke-width:8px;stroke-miterlimit:10" transform="matrix(0.17939315,0,0,0.18008654,59.636827,76.871743)" id="polyline8" class="cls-2 OBgpDgUb_1" d="M0.02,356.03L42.54,356.03L203.67,356.03"></path><path style="fill:#000328;stroke:#000328;stroke-width:1.43791616px;stroke-linecap:round;stroke-linejoin:round" id="path10" d="m 133.69929,179.49224 c 17.7061,-34.80171 17.63793,-58.36964 12.43374,-69.69348 C 129.82798,74.339723 96.173834,77.674923 96.173834,77.674923 l -0.0126,34.536997 c 0,0 2.87029,6.80187 26.534036,17.98164 28.28133,13.36422 11.00398,49.29868 11.00398,49.29868" class="cls-3 OBgpDgUb_2"></path><path style="fill:#f2d16a;stroke:#000328;stroke-width:1.43791616px;stroke-linecap:round;stroke-linejoin:round" id="path12" d="m 143.15689,154.97887 c 0,0 3.17706,20.92966 -9.12214,23.82004 0,0 8.68622,-21.96695 9.12214,-23.82004 z" class="cls-1 OBgpDgUb_3"></path><path style="fill:#75c7fb;stroke:#000328;stroke-width:1.43791616px;stroke-miterlimit:10" id="circle14" class="cls-4 OBgpDgUb_4" d="M61.419993999999996,118.97417A5.848217,5.870821 0,1,1 73.116428,118.97417A5.848217,5.870821 0,1,1 61.419993999999996,118.97417"></path><path style="fill:#75c7fb;stroke:#000328;stroke-width:1.43791616px;stroke-miterlimit:10" id="circle16" class="cls-4 OBgpDgUb_5" d="M80.367497,106.51219A5.848217,5.870821 0,1,1 92.06393100000001,106.51219A5.848217,5.870821 0,1,1 80.367497,106.51219"></path><path style="fill:#75c7fb;stroke:#000328;stroke-width:1.43791616px;stroke-miterlimit:10" id="circle18" class="cls-4 OBgpDgUb_6" d="M70.594158,89.402161A5.848217,5.870821 0,1,1 82.290592,89.402161A5.848217,5.870821 0,1,1 70.594158,89.402161"></path><path style="fill:none;stroke:#000328;stroke-width:1.43791616px;stroke-miterlimit:10" id="line20" class="cls-5 OBgpDgUb_7" d="M67.268211,124.845L67.268211,140.98795"></path><path style="fill:none;stroke:#000328;stroke-width:1.43791616px;stroke-miterlimit:10" id="line22" class="cls-5 OBgpDgUb_8" d="M76.442375,95.27478L76.442375,140.18477"></path><path style="fill:none;stroke:#000328;stroke-width:1.43791616px;stroke-miterlimit:10" id="line24" class="cls-5 OBgpDgUb_9" d="M86.215714,140.98795L86.215714,112.38301"></path><path style="fill:#75c7fb;stroke:#000328;stroke-width:1.43791616px;stroke-miterlimit:10" id="circle26" class="cls-4 OBgpDgUb_10" d="M97.244806,151.58243A21.114574,21.196184 0,1,1 139.473954,151.58243A21.114574,21.196184 0,1,1 97.244806,151.58243"></path><path style="fill:#0249ce;stroke:#000328;stroke-width:1.43791616px;stroke-miterlimit:10" id="circle28" class="cls-6 OBgpDgUb_11" d="M102.814963,151.58243A15.544417,15.604499 0,1,1 133.903797,151.58243A15.544417,15.604499 0,1,1 102.814963,151.58243"></path><path style="fill:#ffffff;stroke:#000328;stroke-width:0.89869756px;stroke-miterlimit:10" id="circle30" class="cls-7 OBgpDgUb_12" d="M107.070169,151.58243A11.289211,11.332847 0,1,1 129.648591,151.58243A11.289211,11.332847 0,1,1 107.070169,151.58243"></path><path style="fill:#0249ce;stroke:#000328;stroke-width:1.43791616px;stroke-miterlimit:10" id="line32" class="cls-6 OBgpDgUb_13" d="M59.640415,159.04161L95.911911,158.87595"></path><path style="fill:none;stroke:#000328;stroke-width:0.89869756px;stroke-linecap:round;stroke-linejoin:round" id="path34" d="m 62.451506,159.05783 v 27.73332 a 2.6263158,2.636467 0 0 1 -0.769597,1.8657 l -0.138133,0.13867" class="cls-8 OBgpDgUb_14"></path><path style="fill:none;stroke:#000328;stroke-width:0.89869756px;stroke-linecap:round;stroke-linejoin:round" id="path36" d="m 64.39254,159.04162 v 28.70039 a 3.3026279,3.3153932 0 0 1 -0.696046,2.03498 l -0.773184,0.58348" class="cls-8 OBgpDgUb_15"></path><path style="fill:none;stroke:#000328;stroke-width:0.89869756px;stroke-linecap:round;stroke-linejoin:round" id="path38" d="m 66.096775,158.95878 v 30.77679 a 2.7088367,2.7193068 0 0 1 -0.746276,1.88551 l -0.792918,0.65191" class="cls-8 OBgpDgUb_16"></path><path style="fill:none;stroke:#000328;stroke-width:0.89869756px;stroke-linecap:round;stroke-linejoin:round" id="path40" d="M 67.980403,158.87594 V 191.043 a 3.0084231,3.0200513 0 0 1 -0.963341,2.21326 l -0.782155,0.54026" class="cls-8 OBgpDgUb_17"></path><path style="fill:none;stroke:#000328;stroke-width:0.89869756px;stroke-linecap:round;stroke-linejoin:round" id="path42" d="m 69.914263,159.05783 v 33.16833 a 2.646049,2.6562764 0 0 1 -0.916701,2.00797 l -1.375945,1.18857" class="cls-8 OBgpDgUb_18"></path><path style="fill:none;stroke:#000328;stroke-width:0.89869756px;stroke-linecap:round;stroke-linejoin:round" id="path44" d="m 75.11487,159.04162 0.116605,31.93474 a 2.3931047,2.4023545 0 0 0 0.922081,1.90532 l 8.930188,6.96755 a 2.0863424,2.0944065 0 0 1 0.80368,1.64959 v 11.58857" class="cls-8 OBgpDgUb_19"></path><path style="fill:none;stroke:#000328;stroke-width:0.89869756px;stroke-linecap:round;stroke-linejoin:round" id="path46" d="m 77.081018,158.95878 v 30.75878 a 2.043288,2.0511857 0 0 0 0.792917,1.62078 l 9.210049,7.2791 a 2.1329846,2.141229 0 0 1 0.81624,1.68741 v 13.96211" class="cls-8 OBgpDgUb_20"></path><path style="fill:none;stroke:#000328;stroke-width:0.89869756px;stroke-linecap:round;stroke-linejoin:round" id="path48" d="m 79.014876,158.95158 v 29.74849 a 1.7221743,1.7288308 0 0 0 0.696045,1.38847 l 9.468373,7.50781 a 2.5115042,2.5212116 0 0 1 0.95617,1.98095 v 15.71795" class="cls-8 OBgpDgUb_21"></path><path style="fill:none;stroke:#000328;stroke-width:0.89869756px;stroke-linecap:round;stroke-linejoin:round" id="path50" d="m 80.989994,158.87594 v 27.62888 a 2.9671629,2.9786315 0 0 0 1.13376,2.34112 l 9.15803,7.22687 a 2.5115042,2.5212116 0 0 1 0.96154,1.98096 v 17.61786" class="cls-8 OBgpDgUb_22"></path><path style="fill:none;stroke:#000328;stroke-width:0.89869756px;stroke-linecap:round;stroke-linejoin:round" id="path52" d="m 83.053014,158.87594 0.0574,26.58437 a 2.6657824,2.6760861 0 0 0 1.0046,2.08721 l 9.26745,7.41416 a 2.3823411,2.3915493 0 0 1 0.89697,1.8711 v 19.32328" class="cls-8 OBgpDgUb_23"></path><path style="fill:none;stroke:#000328;stroke-width:0.89869756px;stroke-linecap:round;stroke-linejoin:round" id="path54" d="m 87.358454,159.05783 0.19195,21.16917 a 2.0648152,2.0727961 0 0 0 0.62608,1.47311 l 6.36846,6.21298" class="cls-8 OBgpDgUb_24"></path><path style="fill:none;stroke:#000328;stroke-width:0.89869756px;stroke-linecap:round;stroke-linejoin:round" id="path56" d="m 89.242084,158.87594 0.17939,20.30836 c 0,0.47002 0,0.92204 0.33905,1.2606 l 4.69472,4.71467" class="cls-8 OBgpDgUb_25"></path><path style="fill:none;stroke:#000328;stroke-width:0.89869756px;stroke-linecap:round;stroke-linejoin:round" id="path58" d="m 91.131084,158.87594 0.1794,19.20623 a 2.0074094,2.0151684 0 0 0 0.62608,1.44069 l 2.51151,2.57344" class="cls-8 OBgpDgUb_26"></path><path style="fill:none;stroke:#000328;stroke-width:0.89869756px;stroke-linecap:round;stroke-linejoin:round" id="path60" d="m 93.140294,158.87594 v 18.29679 a 1.7490833,1.7558438 0 0 0 0.43772,1.16156 l 0.99922,1.15795" class="cls-8 OBgpDgUb_27"></path><path style="fill:none;stroke:#000328;stroke-width:0.89869756px;stroke-linecap:round;stroke-linejoin:round" id="line62" class="cls-8 OBgpDgUb_28" d="M73.627701,195.72166L81.998184,202.53793"></path><path style="fill:none;stroke:#000328;stroke-width:0.89869756px;stroke-linecap:round;stroke-linejoin:round" id="line64" class="cls-8 OBgpDgUb_29" d="M71.448067,196.6347L82.016121,205.27884"></path><path style="fill:none;stroke:#000328;stroke-width:0.89869756px;stroke-linecap:round;stroke-linejoin:round" id="line66" class="cls-8 OBgpDgUb_30" d="M69.273827,197.9079L82.398232,208.27548"></path><path style="fill:none;stroke:#000328;stroke-width:0.89869756px;stroke-linecap:round;stroke-linejoin:round" id="line68" class="cls-8 OBgpDgUb_31" d="M68.676445,199.96449L80.500252,209.39021"></path><path style="fill:none;stroke:#000328;stroke-width:0.89869756px;stroke-linecap:round;stroke-linejoin:round" id="line70" class="cls-8 OBgpDgUb_32" d="M69.537537,203.1322L77.775269,209.80083"></path><path style="fill:none;stroke:#000328;stroke-width:5px;stroke-linecap:round;stroke-linejoin:round" transform="matrix(0.17939315,0,0,0.18008654,59.636827,76.871743)" id="polyline72" class="cls-8 OBgpDgUb_33" d="M337.85,379.27L355.6,376.69L323.97,409.11L322.97,426.25L299.34,454.31"></path><path style="fill:none;stroke:#000328;stroke-width:0.89869756px;stroke-linecap:round;stroke-linejoin:round" id="line74" class="cls-8 OBgpDgUb_34" d="M123.19044,148.1554L123.42903,144.70854"></path><path style="fill:none;stroke:#000328;stroke-width:1.79739511px;stroke-linecap:round;stroke-linejoin:round" id="path76" d="M 133.69929,179.49224" class="cls-9 OBgpDgUb_35"></path><path style="fill:#0249ce;stroke:#000328;stroke-width:1.43791616px;stroke-miterlimit:10" id="path78" d="m 126.74422,171.6855 10.66492,16.88311 7.54886,-5.14327 -10.79947,-17.19646 c 0,0 -1.86748,2.95522 -7.41431,5.45662 z" class="cls-6 OBgpDgUb_36"></path><g aria-label="f(x) = max(0,X)" transform="matrix(0.72646051,0,0,0.6603107,202.70096,69.084642)" id="g6953"></g><path id="polygon6971" d="m 59.771955,144.73724 -0.0019,10.07581 32.835722,0.0538 -9.61e-4,-10.07581 z m 4.2083,3.7668 h 0.301414 v 0.26615 h -0.304882 c -0.114404,0 -0.194274,0.0234 -0.23934,0.0698 -0.04391,0.0464 -0.06601,0.12994 -0.06601,0.25064 v 0.17209 h 0.525349 v 0.24919 h -0.525349 v 1.70062 h -0.320285 v -1.70062 H 63.04578 v -0.24919 h 0.305372 v -0.13573 c 0,-0.21704 0.04997,-0.375 0.150466,-0.47365 0.100529,-0.0998 0.260277,-0.14931 0.478679,-0.14931 z m 1.055186,0.004 h 0.277574 c -0.154848,0.26693 -0.269992,0.53101 -0.345105,0.79214 -0.07514,0.26113 -0.112723,0.52551 -0.112723,0.7936 0,0.26809 0.03757,0.53403 0.112723,0.79747 0.0763,0.26229 0.19142,0.52637 0.345105,0.79215 h -0.277574 c -0.173335,-0.27274 -0.303133,-0.54082 -0.389796,-0.80427 -0.08552,-0.26344 -0.128116,-0.52538 -0.128116,-0.78535 0,-0.2588 0.04257,-0.51919 0.128116,-0.78148 0.08552,-0.26229 0.215308,-0.53037 0.389796,-0.80426 z m 2.94855,0 h 0.277574 c 0.173326,0.27389 0.302787,0.54197 0.388306,0.80426 0.08667,0.26229 0.129596,0.52267 0.129596,0.78148 0,0.25996 -0.04295,0.52191 -0.129596,0.78535 -0.08552,0.26345 -0.21498,0.53153 -0.388306,0.80427 h -0.277574 c 0.153686,-0.26578 0.268003,-0.52986 0.343116,-0.79215 0.0763,-0.26344 0.114702,-0.52938 0.114702,-0.79747 0,-0.26809 -0.03844,-0.53247 -0.114702,-0.7936 -0.07514,-0.26113 -0.18943,-0.52521 -0.343116,-0.79214 z m 13.767991,0 h 0.277074 c -0.154839,0.26693 -0.269493,0.53101 -0.344606,0.79214 -0.07514,0.26113 -0.112722,0.52551 -0.112722,0.7936 0,0.26809 0.03757,0.53403 0.112722,0.79747 0.0763,0.26229 0.19092,0.52637 0.344606,0.79215 h -0.277074 c -0.173336,-0.27274 -0.303633,-0.54082 -0.390296,-0.80427 -0.08552,-0.26344 -0.128106,-0.52539 -0.128106,-0.78535 0,-0.25881 0.04257,-0.51919 0.128106,-0.78148 0.08552,-0.26229 0.215807,-0.53037 0.390296,-0.80426 z m 6.338524,0 h 0.277583 c 0.173326,0.27389 0.302799,0.54197 0.388308,0.80426 0.08667,0.26229 0.129594,0.52267 0.129594,0.78148 0,0.25996 -0.04295,0.52191 -0.129594,0.78535 -0.08552,0.26345 -0.214982,0.53153 -0.388308,0.80427 h -0.277583 c 0.153697,-0.26578 0.268013,-0.52986 0.343128,-0.79215 0.0763,-0.26344 0.114701,-0.52938 0.114701,-0.79747 0,-0.26809 -0.03844,-0.53247 -0.114701,-0.7936 -0.07514,-0.26113 -0.189431,-0.52521 -0.343128,-0.79214 z m -4.646756,0.0591 c 0.290037,0 0.511359,0.11567 0.663891,0.34663 0.153686,0.22979 0.230404,0.56384 0.230404,1.00254 0,0.43754 -0.07668,0.77158 -0.230404,1.00254 -0.152532,0.22979 -0.373854,0.34468 -0.663891,0.34468 -0.290045,0 -0.512194,-0.11489 -0.665889,-0.34468 -0.152532,-0.23096 -0.228904,-0.565 -0.228904,-1.00254 0,-0.4387 0.07639,-0.77275 0.228904,-1.00254 0.153695,-0.23096 0.375844,-0.34663 0.665889,-0.34663 z m 0,0.27828 c -0.180273,0 -0.316393,0.0893 -0.407678,0.26808 -0.09013,0.17757 -0.135063,0.44536 -0.135063,0.80281 0,0.3563 0.04497,0.62359 0.135063,0.80232 0.09128,0.17757 0.227405,0.26664 0.407678,0.26664 0.181417,0 0.317038,-0.089 0.40717,-0.26664 0.09128,-0.17873 0.137052,-0.44602 0.137052,-0.80232 0,-0.35745 -0.04574,-0.62524 -0.137052,-0.80281 -0.09013,-0.17873 -0.225753,-0.26808 -0.40717,-0.26808 z m -8.985671,0.37085 c 0.140973,0 0.260287,0.0361 0.35851,0.10811 0.09938,0.072 0.173095,0.17623 0.220467,0.31318 0.07975,-0.14391 0.175084,-0.25003 0.28602,-0.31851 0.110935,-0.0685 0.241559,-0.10278 0.391785,-0.10278 0.20222,0 0.357981,0.0715 0.467753,0.21428 0.109773,0.14159 0.164861,0.3437 0.164861,0.60599 v 1.17657 h -0.320776 v -1.16639 c 0,-0.18686 -0.03296,-0.32543 -0.09882,-0.41595 -0.06592,-0.0905 -0.166206,-0.13574 -0.301413,-0.13574 -0.165235,0 -0.295869,0.0551 -0.391775,0.16531 -0.0959,0.11026 -0.144,0.26052 -0.144,0.45085 v 1.10192 h -0.320775 v -1.16639 c 0,-0.18801 -0.03296,-0.32658 -0.09882,-0.41595 -0.06592,-0.0905 -0.167378,-0.13574 -0.304882,-0.13574 -0.162939,0 -0.2924,0.0558 -0.388307,0.16724 -0.0959,0.11026 -0.144009,0.25975 -0.144009,0.44892 v 1.10192 h -0.320775 v -1.94981 h 0.320775 v 0.303 c 0.07284,-0.11955 0.159998,-0.20784 0.26169,-0.2647 0.101691,-0.0568 0.222668,-0.0853 0.362487,-0.0853 z m 3.208241,0 c 0.280802,0 0.490469,0.0734 0.629136,0.21962 0.138666,0.14622 0.208062,0.36801 0.208062,0.66512 v 1.1121 h -0.318796 v -0.29572 c -0.07283,0.11839 -0.163486,0.20589 -0.272106,0.26276 -0.108629,0.0557 -0.241587,0.0834 -0.398732,0.0834 -0.198761,0 -0.357337,-0.0554 -0.47521,-0.16676 -0.11671,-0.11258 -0.174786,-0.26284 -0.174786,-0.45086 0,-0.21935 0.07293,-0.385 0.218488,-0.49641 0.146747,-0.11143 0.364909,-0.16725 0.654954,-0.16725 h 0.447392 v -0.0311 c 0,-0.1474 -0.04843,-0.26121 -0.145489,-0.34129 -0.0959,-0.0812 -0.2312,-0.12169 -0.405689,-0.12169 -0.110925,0 -0.219093,0.013 -0.324244,0.0398 -0.10516,0.0267 -0.206332,0.0668 -0.303402,0.12023 v -0.2962 c 0.11672,-0.0452 0.229875,-0.0788 0.339647,-0.10084 0.109782,-0.0232 0.216778,-0.0349 0.320775,-0.0349 z m -11.900945,0.047 h 0.376391 l 0.514434,0.69471 0.514924,-0.69471 h 0.375892 l -0.701635,0.94873 0.738379,1.00109 h -0.376382 l -0.565082,-0.76597 -0.565083,0.76597 h -0.375891 l 0.753772,-1.01999 z m 13.228737,0 h 0.375892 l 0.514923,0.6947 0.514934,-0.6947 h 0.375892 l -0.701635,0.94873 0.738379,1.00108 h -0.376391 l -0.565083,-0.76596 -0.565072,0.76597 h -0.375892 l 0.753773,-1.01999 z m 6.877788,0 h 0.376391 l 0.514435,0.6947 0.514923,-0.6947 h 0.375891 l -0.701624,0.94873 0.738369,1.00108 h -0.376392 l -0.565071,-0.76596 -0.565084,0.76597 h -0.375891 l 0.753772,-1.01999 z m -16.40917,0.33111 h 2.222085 v 0.29233 H 69.46273 Z m 8.404696,0.63847 c -0.257683,0 -0.4364,0.03 -0.535785,0.0892 -0.09938,0.0592 -0.148967,0.15977 -0.148967,0.30251 0,0.11374 0.03728,0.20466 0.111233,0.27197 0.07514,0.0661 0.176622,0.0989 0.304882,0.0989 0.176804,0 0.318248,-0.0623 0.424561,-0.18762 0.107466,-0.1265 0.161372,-0.2943 0.161372,-0.50321 v -0.0718 z m -8.404696,0.0718 h 2.222085 v 0.29572 H 69.46273 Z m 15.52878,0.46637 h 0.365466 v 0.2996 l -0.28403,0.55702 h -0.223447 l 0.142011,-0.55702 z" style="fill:#000328;stroke-width:0.17455678" class="OBgpDgUb_37"></path></g><style data-made-with="vivus-instant">.OBgpDgUb_0{stroke-dasharray:251 253;stroke-dashoffset:252;animation:OBgpDgUb_draw_0 11200ms ease-in-out 0ms infinite,OBgpDgUb_fade 11200ms linear 0ms infinite;}.OBgpDgUb_1{stroke-dasharray:204 206;stroke-dashoffset:205;animation:OBgpDgUb_draw_1 11200ms ease-in-out 0ms infinite,OBgpDgUb_fade 11200ms linear 0ms infinite;}.OBgpDgUb_2{stroke-dasharray:260 262;stroke-dashoffset:261;animation:OBgpDgUb_draw_2 11200ms ease-in-out 0ms infinite,OBgpDgUb_fade 11200ms linear 0ms infinite;}.OBgpDgUb_3{stroke-dasharray:54 56;stroke-dashoffset:55;animation:OBgpDgUb_draw_3 11200ms ease-in-out 0ms infinite,OBgpDgUb_fade 11200ms linear 0ms infinite;}.OBgpDgUb_4{stroke-dasharray:37 39;stroke-dashoffset:38;animation:OBgpDgUb_draw_4 11200ms ease-in-out 0ms infinite,OBgpDgUb_fade 11200ms linear 0ms infinite;}.OBgpDgUb_5{stroke-dasharray:37 39;stroke-dashoffset:38;animation:OBgpDgUb_draw_5 11200ms ease-in-out 0ms infinite,OBgpDgUb_fade 11200ms linear 0ms infinite;}.OBgpDgUb_6{stroke-dasharray:37 39;stroke-dashoffset:38;animation:OBgpDgUb_draw_6 11200ms ease-in-out 0ms infinite,OBgpDgUb_fade 11200ms linear 0ms infinite;}.OBgpDgUb_7{stroke-dasharray:17 19;stroke-dashoffset:18;animation:OBgpDgUb_draw_7 11200ms ease-in-out 0ms infinite,OBgpDgUb_fade 11200ms linear 0ms infinite;}.OBgpDgUb_8{stroke-dasharray:45 47;stroke-dashoffset:46;animation:OBgpDgUb_draw_8 11200ms ease-in-out 0ms infinite,OBgpDgUb_fade 11200ms linear 0ms infinite;}.OBgpDgUb_9{stroke-dasharray:29 31;stroke-dashoffset:30;animation:OBgpDgUb_draw_9 11200ms ease-in-out 0ms infinite,OBgpDgUb_fade 11200ms linear 0ms infinite;}.OBgpDgUb_10{stroke-dasharray:133 135;stroke-dashoffset:134;animation:OBgpDgUb_draw_10 11200ms ease-in-out 0ms infinite,OBgpDgUb_fade 11200ms linear 0ms infinite;}.OBgpDgUb_11{stroke-dasharray:98 100;stroke-dashoffset:99;animation:OBgpDgUb_draw_11 11200ms ease-in-out 0ms infinite,OBgpDgUb_fade 11200ms linear 0ms infinite;}.OBgpDgUb_12{stroke-dasharray:72 74;stroke-dashoffset:73;animation:OBgpDgUb_draw_12 11200ms ease-in-out 0ms infinite,OBgpDgUb_fade 11200ms linear 0ms infinite;}.OBgpDgUb_13{stroke-dasharray:37 39;stroke-dashoffset:38;animation:OBgpDgUb_draw_13 11200ms ease-in-out 0ms infinite,OBgpDgUb_fade 11200ms linear 0ms infinite;}.OBgpDgUb_14{stroke-dasharray:30 32;stroke-dashoffset:31;animation:OBgpDgUb_draw_14 11200ms ease-in-out 0ms infinite,OBgpDgUb_fade 11200ms linear 0ms infinite;}.OBgpDgUb_15{stroke-dasharray:32 34;stroke-dashoffset:33;animation:OBgpDgUb_draw_15 11200ms ease-in-out 0ms infinite,OBgpDgUb_fade 11200ms linear 0ms infinite;}.OBgpDgUb_16{stroke-dasharray:34 36;stroke-dashoffset:35;animation:OBgpDgUb_draw_16 11200ms ease-in-out 0ms infinite,OBgpDgUb_fade 11200ms linear 0ms infinite;}.OBgpDgUb_17{stroke-dasharray:36 38;stroke-dashoffset:37;animation:OBgpDgUb_draw_17 11200ms ease-in-out 0ms infinite,OBgpDgUb_fade 11200ms linear 0ms infinite;}.OBgpDgUb_18{stroke-dasharray:38 40;stroke-dashoffset:39;animation:OBgpDgUb_draw_18 11200ms ease-in-out 0ms infinite,OBgpDgUb_fade 11200ms linear 0ms infinite;}.OBgpDgUb_19{stroke-dasharray:59 61;stroke-dashoffset:60;animation:OBgpDgUb_draw_19 11200ms ease-in-out 0ms infinite,OBgpDgUb_fade 11200ms linear 0ms infinite;}.OBgpDgUb_20{stroke-dasharray:61 63;stroke-dashoffset:62;animation:OBgpDgUb_draw_20 11200ms ease-in-out 0ms infinite,OBgpDgUb_fade 11200ms linear 0ms infinite;}.OBgpDgUb_21{stroke-dasharray:62 64;stroke-dashoffset:63;animation:OBgpDgUb_draw_21 11200ms ease-in-out 0ms infinite,OBgpDgUb_fade 11200ms linear 0ms infinite;}.OBgpDgUb_22{stroke-dasharray:62 64;stroke-dashoffset:63;animation:OBgpDgUb_draw_22 11200ms ease-in-out 0ms infinite,OBgpDgUb_fade 11200ms linear 0ms infinite;}.OBgpDgUb_23{stroke-dasharray:63 65;stroke-dashoffset:64;animation:OBgpDgUb_draw_23 11200ms ease-in-out 0ms infinite,OBgpDgUb_fade 11200ms linear 0ms infinite;}.OBgpDgUb_24{stroke-dasharray:32 34;stroke-dashoffset:33;animation:OBgpDgUb_draw_24 11200ms ease-in-out 0ms infinite,OBgpDgUb_fade 11200ms linear 0ms infinite;}.OBgpDgUb_25{stroke-dasharray:29 31;stroke-dashoffset:30;animation:OBgpDgUb_draw_25 11200ms ease-in-out 0ms infinite,OBgpDgUb_fade 11200ms linear 0ms infinite;}.OBgpDgUb_26{stroke-dasharray:25 27;stroke-dashoffset:26;animation:OBgpDgUb_draw_26 11200ms ease-in-out 0ms infinite,OBgpDgUb_fade 11200ms linear 0ms infinite;}.OBgpDgUb_27{stroke-dasharray:22 24;stroke-dashoffset:23;animation:OBgpDgUb_draw_27 11200ms ease-in-out 0ms infinite,OBgpDgUb_fade 11200ms linear 0ms infinite;}.OBgpDgUb_28{stroke-dasharray:11 13;stroke-dashoffset:12;animation:OBgpDgUb_draw_28 11200ms ease-in-out 0ms infinite,OBgpDgUb_fade 11200ms linear 0ms infinite;}.OBgpDgUb_29{stroke-dasharray:14 16;stroke-dashoffset:15;animation:OBgpDgUb_draw_29 11200ms ease-in-out 0ms infinite,OBgpDgUb_fade 11200ms linear 0ms infinite;}.OBgpDgUb_30{stroke-dasharray:17 19;stroke-dashoffset:18;animation:OBgpDgUb_draw_30 11200ms ease-in-out 0ms infinite,OBgpDgUb_fade 11200ms linear 0ms infinite;}.OBgpDgUb_31{stroke-dasharray:16 18;stroke-dashoffset:17;animation:OBgpDgUb_draw_31 11200ms ease-in-out 0ms infinite,OBgpDgUb_fade 11200ms linear 0ms infinite;}.OBgpDgUb_32{stroke-dasharray:11 13;stroke-dashoffset:12;animation:OBgpDgUb_draw_32 11200ms ease-in-out 0ms infinite,OBgpDgUb_fade 11200ms linear 0ms infinite;}.OBgpDgUb_33{stroke-dasharray:118 120;stroke-dashoffset:119;animation:OBgpDgUb_draw_33 11200ms ease-in-out 0ms infinite,OBgpDgUb_fade 11200ms linear 0ms infinite;}.OBgpDgUb_34{stroke-dasharray:4 6;stroke-dashoffset:5;animation:OBgpDgUb_draw_34 11200ms ease-in-out 0ms infinite,OBgpDgUb_fade 11200ms linear 0ms infinite;}.OBgpDgUb_35{stroke-dasharray:0 2;stroke-dashoffset:1;animation:OBgpDgUb_draw_35 11200ms ease-in-out 0ms infinite,OBgpDgUb_fade 11200ms linear 0ms infinite;}.OBgpDgUb_36{stroke-dasharray:59 61;stroke-dashoffset:60;animation:OBgpDgUb_draw_36 11200ms ease-in-out 0ms infinite,OBgpDgUb_fade 11200ms linear 0ms infinite;}.OBgpDgUb_37{stroke-dasharray:207 209;stroke-dashoffset:208;animation:OBgpDgUb_draw_37 11200ms ease-in-out 0ms infinite,OBgpDgUb_fade 11200ms linear 0ms infinite;}@keyframes OBgpDgUb_draw{100%{stroke-dashoffset:0;}}@keyframes OBgpDgUb_fade{0%{stroke-opacity:1;}96.42857142857143%{stroke-opacity:1;}100%{stroke-opacity:0;}}@keyframes OBgpDgUb_draw_0{7.142857142857142%{stroke-dashoffset: 252}13.730059150385374%{ stroke-dashoffset: 0;}100%{ stroke-dashoffset: 0;}}@keyframes OBgpDgUb_draw_1{13.730059150385374%{stroke-dashoffset: 205}19.08869570412858%{ stroke-dashoffset: 0;}100%{ stroke-dashoffset: 0;}}@keyframes OBgpDgUb_draw_2{19.08869570412858%{stroke-dashoffset: 261}25.91115492621139%{ stroke-dashoffset: 0;}100%{ stroke-dashoffset: 0;}}@keyframes OBgpDgUb_draw_3{25.91115492621139%{stroke-dashoffset: 55}27.34883790404493%{ stroke-dashoffset: 0;}100%{ stroke-dashoffset: 0;}}@keyframes OBgpDgUb_draw_4{27.34883790404493%{stroke-dashoffset: 38}28.342146143275375%{ stroke-dashoffset: 0;}100%{ stroke-dashoffset: 0;}}@keyframes OBgpDgUb_draw_5{28.342146143275375%{stroke-dashoffset: 38}29.335454382505826%{ stroke-dashoffset: 0;}100%{ stroke-dashoffset: 0;}}@keyframes OBgpDgUb_draw_6{29.335454382505826%{stroke-dashoffset: 38}30.32876262173627%{ stroke-dashoffset: 0;}100%{ stroke-dashoffset: 0;}}@keyframes OBgpDgUb_draw_7{30.32876262173627%{stroke-dashoffset: 18}30.79927705084543%{ stroke-dashoffset: 0;}100%{ stroke-dashoffset: 0;}}@keyframes OBgpDgUb_draw_8{30.79927705084543%{stroke-dashoffset: 46}32.00170281412439%{ stroke-dashoffset: 0;}100%{ stroke-dashoffset: 0;}}@keyframes OBgpDgUb_draw_9{32.00170281412439%{stroke-dashoffset: 30}32.78589352930633%{ stroke-dashoffset: 0;}100%{ stroke-dashoffset: 0;}}@keyframes OBgpDgUb_draw_10{32.78589352930633%{stroke-dashoffset: 134}36.28861205711896%{ stroke-dashoffset: 0;}100%{ stroke-dashoffset: 0;}}@keyframes OBgpDgUb_draw_11{36.28861205711896%{stroke-dashoffset: 99}38.87644141721933%{ stroke-dashoffset: 0;}100%{ stroke-dashoffset: 0;}}@keyframes OBgpDgUb_draw_12{38.87644141721934%{stroke-dashoffset: 73}40.78463882416204%{ stroke-dashoffset: 0;}100%{ stroke-dashoffset: 0;}}@keyframes OBgpDgUb_draw_13{40.78463882416203%{stroke-dashoffset: 38}41.77794706339248%{ stroke-dashoffset: 0;}100%{ stroke-dashoffset: 0;}}@keyframes OBgpDgUb_draw_14{41.77794706339248%{stroke-dashoffset: 31}42.58827746908048%{ stroke-dashoffset: 0;}100%{ stroke-dashoffset: 0;}}@keyframes OBgpDgUb_draw_15{42.58827746908048%{stroke-dashoffset: 33}43.4508872557806%{ stroke-dashoffset: 0;}100%{ stroke-dashoffset: 0;}}@keyframes OBgpDgUb_draw_16{43.4508872557806%{stroke-dashoffset: 35}44.36577642349286%{ stroke-dashoffset: 0;}100%{ stroke-dashoffset: 0;}}@keyframes OBgpDgUb_draw_17{44.36577642349286%{stroke-dashoffset: 37}45.332944972217234%{ stroke-dashoffset: 0;}100%{ stroke-dashoffset: 0;}}@keyframes OBgpDgUb_draw_18{45.332944972217234%{stroke-dashoffset: 39}46.35239290195375%{ stroke-dashoffset: 0;}100%{ stroke-dashoffset: 0;}}@keyframes OBgpDgUb_draw_19{46.352392901953756%{stroke-dashoffset: 60}47.92077433231762%{ stroke-dashoffset: 0;}100%{ stroke-dashoffset: 0;}}@keyframes OBgpDgUb_draw_20{47.92077433231762%{stroke-dashoffset: 62}49.54143514369362%{ stroke-dashoffset: 0;}100%{ stroke-dashoffset: 0;}}@keyframes OBgpDgUb_draw_21{49.54143514369361%{stroke-dashoffset: 63}51.18823564557567%{ stroke-dashoffset: 0;}100%{ stroke-dashoffset: 0;}}@keyframes OBgpDgUb_draw_22{51.18823564557567%{stroke-dashoffset: 63}52.835036147457735%{ stroke-dashoffset: 0;}100%{ stroke-dashoffset: 0;}}@keyframes OBgpDgUb_draw_23{52.83503614745773%{stroke-dashoffset: 64}54.507976339845854%{ stroke-dashoffset: 0;}100%{ stroke-dashoffset: 0;}}@keyframes OBgpDgUb_draw_24{54.507976339845854%{stroke-dashoffset: 33}55.37058612654597%{ stroke-dashoffset: 0;}100%{ stroke-dashoffset: 0;}}@keyframes OBgpDgUb_draw_25{55.37058612654597%{stroke-dashoffset: 30}56.1547768417279%{ stroke-dashoffset: 0;}100%{ stroke-dashoffset: 0;}}@keyframes OBgpDgUb_draw_26{56.154776841727916%{stroke-dashoffset: 26}56.83440879488558%{ stroke-dashoffset: 0;}100%{ stroke-dashoffset: 0;}}@keyframes OBgpDgUb_draw_27{56.83440879488558%{stroke-dashoffset: 23}57.435621676525074%{ stroke-dashoffset: 0;}100%{ stroke-dashoffset: 0;}}@keyframes OBgpDgUb_draw_28{57.43562167652506%{stroke-dashoffset: 12}57.749297962597836%{ stroke-dashoffset: 0;}100%{ stroke-dashoffset: 0;}}@keyframes OBgpDgUb_draw_29{57.749297962597836%{stroke-dashoffset: 15}58.141393320188804%{ stroke-dashoffset: 0;}100%{ stroke-dashoffset: 0;}}@keyframes OBgpDgUb_draw_30{58.141393320188804%{stroke-dashoffset: 18}58.61190774929796%{ stroke-dashoffset: 0;}100%{ stroke-dashoffset: 0;}}@keyframes OBgpDgUb_draw_31{58.61190774929796%{stroke-dashoffset: 17}59.05628248790106%{ stroke-dashoffset: 0;}100%{ stroke-dashoffset: 0;}}@keyframes OBgpDgUb_draw_32{59.05628248790106%{stroke-dashoffset: 12}59.36995877397383%{ stroke-dashoffset: 0;}100%{ stroke-dashoffset: 0;}}@keyframes OBgpDgUb_draw_33{59.36995877397383%{stroke-dashoffset: 119}62.48058194419549%{ stroke-dashoffset: 0;}100%{ stroke-dashoffset: 0;}}@keyframes OBgpDgUb_draw_34{62.48058194419549%{stroke-dashoffset: 5}62.611280396725824%{ stroke-dashoffset: 0;}100%{ stroke-dashoffset: 0;}}@keyframes OBgpDgUb_draw_35{62.611280396725824%{stroke-dashoffset: 1}62.637420087231874%{ stroke-dashoffset: 0;}100%{ stroke-dashoffset: 0;}}@keyframes OBgpDgUb_draw_36{62.637420087231874%{stroke-dashoffset: 60}64.20580151759575%{ stroke-dashoffset: 0;}100%{ stroke-dashoffset: 0;}}@keyframes OBgpDgUb_draw_37{64.20580151759575%{stroke-dashoffset: 208}69.64285714285714%{ stroke-dashoffset: 0;}100%{ stroke-dashoffset: 0;}}</style></svg>